<svg width="1200" height="520" viewBox="0 0 1200 520" fill="none" xmlns="http://www.w3.org/2000/svg" role="img" aria-labelledby="title desc">
  <title id="title">Polymarket live pilot return curve</title>
  <desc id="desc">An anonymized time series chart with x axis as date and y axis as percentage return versus initial stake.</desc>
  <rect width="1200" height="520" fill="#FAF9F5"/>
  <g font-family="system-ui, -apple-system, Segoe UI, Roboto, sans-serif">
    <text x="52" y="45" fill="#141413" font-size="28" font-weight="720">Polymarket return curve</text>
    <text x="1142" y="45" text-anchor="end" fill="#3D3D3A" font-size="15">Latest: $665.25</text>
    <text x="52" y="70" fill="#6C6A63" font-size="13">vs user-provided $50.00 initial stake | snapshot date: 2026-06-07</text>

    <text x="618.00" y="498" text-anchor="middle" fill="#3D3D3A" font-size="14">Time</text>
    <text x="26" y="265.00" text-anchor="middle" fill="#3D3D3A" font-size="14" transform="rotate(-90 26 265.00)">Return (%)</text>


    <line x1="92" y1="425.84" x2="1144" y2="425.84" stroke="#E3DACC" stroke-width="1"/>
    <text x="78" y="430.84" text-anchor="end" fill="#87867F" font-size="13">0%</text>
    <line x1="92" y1="354.30" x2="1144" y2="354.30" stroke="#E3DACC" stroke-width="1"/>
    <text x="78" y="359.30" text-anchor="end" fill="#87867F" font-size="13">300%</text>
    <line x1="92" y1="282.76" x2="1144" y2="282.76" stroke="#E3DACC" stroke-width="1"/>
    <text x="78" y="287.76" text-anchor="end" fill="#87867F" font-size="13">600%</text>
    <line x1="92" y1="211.23" x2="1144" y2="211.23" stroke="#E3DACC" stroke-width="1"/>
    <text x="78" y="216.23" text-anchor="end" fill="#87867F" font-size="13">900%</text>
    <line x1="92" y1="139.69" x2="1144" y2="139.69" stroke="#E3DACC" stroke-width="1"/>
    <text x="78" y="144.69" text-anchor="end" fill="#87867F" font-size="13">1200%</text>
    <line x1="92" y1="92.00" x2="1144" y2="92.00" stroke="#E3DACC" stroke-width="1"/>
    <text x="78" y="97.00" text-anchor="end" fill="#87867F" font-size="13">1400%</text>
    <line x1="92" y1="438" x2="1144" y2="438" stroke="#141413" stroke-width="1.2"/>
    <line x1="92" y1="92" x2="92" y2="438" stroke="#141413" stroke-width="1.2"/>

    <line x1="92.00" y1="438" x2="92.00" y2="445" stroke="#87867F"/>
    <text x="92.00" y="468" text-anchor="middle" fill="#3D3D3A" font-size="13">Mar 19</text>
    <line x1="618.00" y1="438" x2="618.00" y2="445" stroke="#87867F"/>
    <text x="618.00" y="468" text-anchor="middle" fill="#3D3D3A" font-size="13">Apr 28</text>
    <line x1="1144.00" y1="438" x2="1144.00" y2="445" stroke="#87867F"/>
    <text x="1144.00" y="468" text-anchor="middle" fill="#3D3D3A" font-size="13">Jun 07</text>

    <path d="M 92.00 425.84 C 94.19 426.00, 100.77 426.75, 105.15 426.79 C 109.53 426.83, 113.92 426.12, 118.30 426.08 C 122.68 426.04, 127.07 426.36, 131.45 426.55 C 135.83 426.75, 140.22 426.87, 144.60 427.27 C 148.98 427.67, 153.37 428.58, 157.75 428.94 C 162.13 429.30, 166.52 429.26, 170.90 429.42 C 175.28 429.57, 179.67 429.61, 184.05 429.89 C 188.43 430.17, 192.82 430.69, 197.20 431.08 C 201.58 431.48, 205.97 431.12, 210.35 432.28 C 214.73 433.43, 219.12 437.21, 223.50 438.00 C 227.88 438.79, 232.27 437.32, 236.65 437.05 C 241.03 436.77, 245.42 436.73, 249.80 436.33 C 254.18 435.93, 258.57 435.18, 262.95 434.66 C 267.33 434.14, 271.72 434.98, 276.10 433.23 C 280.48 431.48, 284.87 425.76, 289.25 424.17 C 293.63 422.58, 298.02 424.92, 302.40 423.69 C 306.78 422.46, 311.17 418.33, 315.55 416.78 C 319.93 415.23, 324.32 415.19, 328.70 414.39 C 333.08 413.60, 337.47 412.17, 341.85 412.01 C 346.23 411.85, 350.62 413.68, 355.00 413.44 C 359.38 413.20, 363.77 411.09, 368.15 410.58 C 372.53 410.06, 376.92 410.54, 381.30 410.34 C 385.68 410.14, 390.07 408.87, 394.45 409.39 C 398.83 409.90, 403.22 412.68, 407.60 413.44 C 411.98 414.19, 416.37 413.96, 420.75 413.92 C 425.13 413.88, 429.52 414.51, 433.90 413.20 C 438.28 411.89, 442.67 407.00, 447.05 406.05 C 451.43 405.09, 455.82 408.43, 460.20 407.48 C 464.58 406.52, 471.16 401.52, 473.35 400.32 L 473.35 438.00 L 92.00 438.00 Z" fill="#E3DACC" opacity="0.62"/><path d="M 696.90 280.86 C 699.09 279.74, 705.67 273.86, 710.05 274.18 C 714.43 274.50, 718.82 284.71, 723.20 282.76 C 727.58 280.82, 731.97 265.00, 736.35 262.50 C 740.73 259.99, 745.12 266.87, 749.50 267.74 C 753.88 268.62, 758.27 267.74, 762.65 267.74 C 767.03 267.74, 771.42 265.16, 775.80 267.74 C 780.18 270.33, 784.57 277.04, 788.95 283.24 C 793.33 289.44, 797.72 303.55, 802.10 304.94 C 806.48 306.33, 810.87 292.86, 815.25 291.59 C 819.63 290.32, 824.02 299.97, 828.40 297.31 C 832.78 294.65, 837.17 279.03, 841.55 275.61 C 845.93 272.19, 850.32 280.34, 854.70 276.80 C 859.08 273.27, 863.47 258.12, 867.85 254.39 C 872.23 250.65, 876.62 254.39, 881.00 254.39 C 885.38 254.39, 889.77 258.24, 894.15 254.39 C 898.53 250.53, 902.92 227.80, 907.30 231.26 C 911.68 234.72, 916.07 267.07, 920.45 275.13 C 924.83 283.20, 929.22 277.12, 933.60 279.67 C 937.98 282.21, 942.37 285.86, 946.75 290.40 C 951.13 294.93, 955.52 305.34, 959.90 306.85 C 964.28 308.36, 968.67 303.15, 973.05 299.46 C 977.43 295.76, 981.82 280.50, 986.20 284.67 C 990.58 288.85, 994.97 331.33, 999.35 324.49 C 1003.73 317.66, 1008.12 253.16, 1012.50 243.66 C 1016.88 234.16, 1021.27 270.13, 1025.65 267.50 C 1030.03 264.88, 1034.42 239.41, 1038.80 227.92 C 1043.18 216.43, 1047.57 208.61, 1051.95 198.59 C 1056.33 188.57, 1060.72 175.42, 1065.10 167.83 C 1069.48 160.24, 1073.87 156.03, 1078.25 153.04 C 1082.63 150.06, 1087.02 149.67, 1091.40 149.94 C 1095.78 150.22, 1100.17 151.22, 1104.55 154.71 C 1108.93 158.21, 1113.32 163.22, 1117.70 170.93 C 1122.08 178.64, 1126.47 207.37, 1130.85 200.97 C 1135.23 194.58, 1141.81 143.94, 1144.00 132.54 L 1144.00 438.00 L 696.90 438.00 Z" fill="#E3DACC" opacity="0.62"/>
    <path d="M 92.00 425.84 C 94.19 426.00, 100.77 426.75, 105.15 426.79 C 109.53 426.83, 113.92 426.12, 118.30 426.08 C 122.68 426.04, 127.07 426.36, 131.45 426.55 C 135.83 426.75, 140.22 426.87, 144.60 427.27 C 148.98 427.67, 153.37 428.58, 157.75 428.94 C 162.13 429.30, 166.52 429.26, 170.90 429.42 C 175.28 429.57, 179.67 429.61, 184.05 429.89 C 188.43 430.17, 192.82 430.69, 197.20 431.08 C 201.58 431.48, 205.97 431.12, 210.35 432.28 C 214.73 433.43, 219.12 437.21, 223.50 438.00 C 227.88 438.79, 232.27 437.32, 236.65 437.05 C 241.03 436.77, 245.42 436.73, 249.80 436.33 C 254.18 435.93, 258.57 435.18, 262.95 434.66 C 267.33 434.14, 271.72 434.98, 276.10 433.23 C 280.48 431.48, 284.87 425.76, 289.25 424.17 C 293.63 422.58, 298.02 424.92, 302.40 423.69 C 306.78 422.46, 311.17 418.33, 315.55 416.78 C 319.93 415.23, 324.32 415.19, 328.70 414.39 C 333.08 413.60, 337.47 412.17, 341.85 412.01 C 346.23 411.85, 350.62 413.68, 355.00 413.44 C 359.38 413.20, 363.77 411.09, 368.15 410.58 C 372.53 410.06, 376.92 410.54, 381.30 410.34 C 385.68 410.14, 390.07 408.87, 394.45 409.39 C 398.83 409.90, 403.22 412.68, 407.60 413.44 C 411.98 414.19, 416.37 413.96, 420.75 413.92 C 425.13 413.88, 429.52 414.51, 433.90 413.20 C 438.28 411.89, 442.67 407.00, 447.05 406.05 C 451.43 405.09, 455.82 408.43, 460.20 407.48 C 464.58 406.52, 471.16 401.52, 473.35 400.32" fill="none" stroke="#D97757" stroke-width="4" stroke-linecap="round" stroke-linejoin="round"/><path d="M 696.90 280.86 C 699.09 279.74, 705.67 273.86, 710.05 274.18 C 714.43 274.50, 718.82 284.71, 723.20 282.76 C 727.58 280.82, 731.97 265.00, 736.35 262.50 C 740.73 259.99, 745.12 266.87, 749.50 267.74 C 753.88 268.62, 758.27 267.74, 762.65 267.74 C 767.03 267.74, 771.42 265.16, 775.80 267.74 C 780.18 270.33, 784.57 277.04, 788.95 283.24 C 793.33 289.44, 797.72 303.55, 802.10 304.94 C 806.48 306.33, 810.87 292.86, 815.25 291.59 C 819.63 290.32, 824.02 299.97, 828.40 297.31 C 832.78 294.65, 837.17 279.03, 841.55 275.61 C 845.93 272.19, 850.32 280.34, 854.70 276.80 C 859.08 273.27, 863.47 258.12, 867.85 254.39 C 872.23 250.65, 876.62 254.39, 881.00 254.39 C 885.38 254.39, 889.77 258.24, 894.15 254.39 C 898.53 250.53, 902.92 227.80, 907.30 231.26 C 911.68 234.72, 916.07 267.07, 920.45 275.13 C 924.83 283.20, 929.22 277.12, 933.60 279.67 C 937.98 282.21, 942.37 285.86, 946.75 290.40 C 951.13 294.93, 955.52 305.34, 959.90 306.85 C 964.28 308.36, 968.67 303.15, 973.05 299.46 C 977.43 295.76, 981.82 280.50, 986.20 284.67 C 990.58 288.85, 994.97 331.33, 999.35 324.49 C 1003.73 317.66, 1008.12 253.16, 1012.50 243.66 C 1016.88 234.16, 1021.27 270.13, 1025.65 267.50 C 1030.03 264.88, 1034.42 239.41, 1038.80 227.92 C 1043.18 216.43, 1047.57 208.61, 1051.95 198.59 C 1056.33 188.57, 1060.72 175.42, 1065.10 167.83 C 1069.48 160.24, 1073.87 156.03, 1078.25 153.04 C 1082.63 150.06, 1087.02 149.67, 1091.40 149.94 C 1095.78 150.22, 1100.17 151.22, 1104.55 154.71 C 1108.93 158.21, 1113.32 163.22, 1117.70 170.93 C 1122.08 178.64, 1126.47 207.37, 1130.85 200.97 C 1135.23 194.58, 1141.81 143.94, 1144.00 132.54" fill="none" stroke="#D97757" stroke-width="4" stroke-linecap="round" stroke-linejoin="round"/>
    <circle cx="1144.00" cy="132.54" r="7" fill="#141413"/>
    <text x="1132.00" y="114.54" text-anchor="end" fill="#141413" font-size="18" font-weight="720">1,230% return</text>
    <text x="1132.00" y="136.54" text-anchor="end" fill="#788C5D" font-size="13">2026-06-07</text>
  </g>
</svg>
