<svg width="1200" height="520" viewBox="0 0 1200 520" fill="none" xmlns="http://www.w3.org/2000/svg" role="img" aria-labelledby="title desc">
  <title id="title">Polymarket live pilot return curve</title>
  <desc id="desc">An anonymized time series chart with x axis as date and y axis as percentage return versus initial stake.</desc>
  <defs>
    <filter id="shadow" x="-6%" y="-8%" width="112%" height="116%">
      <feDropShadow dx="0" dy="8" stdDeviation="12" flood-color="#6B5D4D" flood-opacity="0.12"/>
    </filter>
  </defs>
  <rect width="1200" height="520" rx="24" fill="#FBF7EF"/>
  <path d="M0 104H1200M0 208H1200M0 312H1200M0 416H1200" stroke="#E7DDCE" stroke-opacity="0.45"/>
  <path d="M200 0V520M400 0V520M600 0V520M800 0V520M1000 0V520" stroke="#E7DDCE" stroke-opacity="0.32"/>
  <rect x="24" y="24" width="1152" height="472" rx="22" fill="#FFFDF8" stroke="#D8D0C1" stroke-width="1.5" filter="url(#shadow)"/>
  <g font-family="Inter, ui-sans-serif, system-ui, -apple-system, Segoe UI, sans-serif">
    <text x="54" y="62" fill="#171717" font-size="30" font-weight="780">Polymarket return curve</text>
    <text x="1142" y="62" text-anchor="end" fill="#171717" font-size="17" font-weight="720">Latest: $665.25</text>
    <text x="54" y="90" fill="#5E574E" font-size="14">Return vs user-provided $50 initial stake | snapshot date: 2026-06-07</text>
    <text x="610" y="488" text-anchor="middle" fill="#57534E" font-size="14">Time</text>
    <text x="30" y="262" text-anchor="middle" fill="#57534E" font-size="14" transform="rotate(-90 30 262)">Return (%)</text>
    <line x1="92" y1="393.86" x2="1148" y2="393.86" stroke="#E7DDCE" stroke-width="1"/><text x="78" y="398.86" text-anchor="end" fill="#78716C" font-size="13">0%</text><line x1="92" y1="327.43" x2="1148" y2="327.43" stroke="#E7DDCE" stroke-width="1"/><text x="78" y="332.43" text-anchor="end" fill="#78716C" font-size="13">300%</text><line x1="92" y1="261.00" x2="1148" y2="261.00" stroke="#E7DDCE" stroke-width="1"/><text x="78" y="266.00" text-anchor="end" fill="#78716C" font-size="13">600%</text><line x1="92" y1="194.57" x2="1148" y2="194.57" stroke="#E7DDCE" stroke-width="1"/><text x="78" y="199.57" text-anchor="end" fill="#78716C" font-size="13">900%</text><line x1="92" y1="128.14" x2="1148" y2="128.14" stroke="#E7DDCE" stroke-width="1"/><text x="78" y="133.14" text-anchor="end" fill="#78716C" font-size="13">1200%</text>
    <line x1="92" y1="416" x2="1148" y2="416" stroke="#171717" stroke-width="1.2"/>
    <line x1="92" y1="106" x2="92" y2="416" stroke="#171717" stroke-width="1.2"/>
    <line x1="92.00" y1="416" x2="92.00" y2="423" stroke="#A8A29E"/><text x="92.00" y="446" text-anchor="middle" fill="#57534E" font-size="13">Mar 19</text><line x1="620.00" y1="416" x2="620.00" y2="423" stroke="#A8A29E"/><text x="620.00" y="446" text-anchor="middle" fill="#57534E" font-size="13">Apr 28</text><line x1="1148.00" y1="416" x2="1148.00" y2="423" stroke="#A8A29E"/><text x="1148.00" y="446" text-anchor="middle" fill="#57534E" font-size="13">Jun 07</text>
    <path d="M 92.00 393.86 L 105.20 394.74 L 118.40 394.08 L 131.60 394.52 L 144.80 395.19 L 158.00 396.74 L 171.20 397.18 L 184.40 397.62 L 197.60 398.73 L 210.80 399.84 L 224.00 405.15 L 237.20 404.26 L 250.40 403.60 L 263.60 402.05 L 276.80 400.72 L 290.00 392.31 L 303.20 391.86 L 316.40 385.44 L 329.60 383.23 L 342.80 381.01 L 356.00 382.34 L 369.20 379.69 L 382.40 379.46 L 395.60 378.58 L 408.80 382.34 L 422.00 382.79 L 435.20 382.12 L 448.40 375.48 L 461.60 376.81 L 474.80 370.16 L 699.20 259.23 L 712.40 253.03 L 725.60 261.00 L 738.80 242.18 L 752.00 247.05 L 765.20 247.05 L 778.40 247.05 L 791.60 261.44 L 804.80 281.59 L 818.00 269.19 L 831.20 274.51 L 844.40 254.36 L 857.60 255.46 L 870.80 234.65 L 884.00 234.65 L 897.20 234.65 L 910.40 213.17 L 923.60 253.91 L 936.80 258.12 L 950.00 268.09 L 963.20 283.36 L 976.40 276.50 L 989.60 262.77 L 1002.80 299.75 L 1016.00 224.69 L 1029.20 246.83 L 1042.40 210.07 L 1055.60 182.84 L 1068.80 154.27 L 1082.00 140.54 L 1095.20 137.66 L 1108.40 142.09 L 1121.60 157.15 L 1134.80 185.05 L 1148.00 121.50 L 1148.00 393.86 L 92.00 393.86 Z" fill="#E7DDCE" opacity="0.66"/>
    <path d="M 92.00 393.86 L 105.20 394.74 L 118.40 394.08 L 131.60 394.52 L 144.80 395.19 L 158.00 396.74 L 171.20 397.18 L 184.40 397.62 L 197.60 398.73 L 210.80 399.84 L 224.00 405.15 L 237.20 404.26 L 250.40 403.60 L 263.60 402.05 L 276.80 400.72 L 290.00 392.31 L 303.20 391.86 L 316.40 385.44 L 329.60 383.23 L 342.80 381.01 L 356.00 382.34 L 369.20 379.69 L 382.40 379.46 L 395.60 378.58 L 408.80 382.34 L 422.00 382.79 L 435.20 382.12 L 448.40 375.48 L 461.60 376.81 L 474.80 370.16 L 699.20 259.23 L 712.40 253.03 L 725.60 261.00 L 738.80 242.18 L 752.00 247.05 L 765.20 247.05 L 778.40 247.05 L 791.60 261.44 L 804.80 281.59 L 818.00 269.19 L 831.20 274.51 L 844.40 254.36 L 857.60 255.46 L 870.80 234.65 L 884.00 234.65 L 897.20 234.65 L 910.40 213.17 L 923.60 253.91 L 936.80 258.12 L 950.00 268.09 L 963.20 283.36 L 976.40 276.50 L 989.60 262.77 L 1002.80 299.75 L 1016.00 224.69 L 1029.20 246.83 L 1042.40 210.07 L 1055.60 182.84 L 1068.80 154.27 L 1082.00 140.54 L 1095.20 137.66 L 1108.40 142.09 L 1121.60 157.15 L 1134.80 185.05 L 1148.00 121.50" fill="none" stroke="#D97757" stroke-width="4" stroke-linejoin="round" stroke-linecap="round"/>
    <circle cx="1148.00" cy="121.50" r="7" fill="#171717"/>
    <text x="1136.00" y="103.50" text-anchor="end" fill="#171717" font-size="18" font-weight="720">1,230% return</text>
    <text x="1136.00" y="125.50" text-anchor="end" fill="#6F7F4D" font-size="13">2026-06-07</text>
  </g>
</svg>
