<svg width="1200" height="340" viewBox="0 0 1200 340" fill="none" xmlns="http://www.w3.org/2000/svg" role="img" aria-labelledby="title desc">
  <title id="title">Linghao Xu profile header</title>
  <desc id="desc">Probabilistic modeling for neural dynamics, perception, and decision systems.</desc>
  <defs>
    <linearGradient id="bg" x1="0" y1="0" x2="1200" y2="340" gradientUnits="userSpaceOnUse">
      <stop offset="0" stop-color="#0f172a"/>
      <stop offset="0.55" stop-color="#123447"/>
      <stop offset="1" stop-color="#14532d"/>
    </linearGradient>
    <linearGradient id="lineA" x1="92" y1="160" x2="970" y2="160" gradientUnits="userSpaceOnUse">
      <stop stop-color="#38bdf8"/>
      <stop offset="0.5" stop-color="#2dd4bf"/>
      <stop offset="1" stop-color="#facc15"/>
    </linearGradient>
    <filter id="soft" x="-20%" y="-20%" width="140%" height="140%">
      <feGaussianBlur stdDeviation="20"/>
    </filter>
  </defs>

  <rect width="1200" height="340" rx="28" fill="url(#bg)"/>
  <circle cx="1015" cy="70" r="130" fill="#2dd4bf" opacity="0.16" filter="url(#soft)"/>
  <circle cx="110" cy="315" r="160" fill="#facc15" opacity="0.11" filter="url(#soft)"/>

  <g opacity="0.35">
    <path d="M0 248 C190 188 300 292 485 230 C645 176 790 170 1200 218" stroke="#e2e8f0" stroke-width="1.3"/>
    <path d="M0 272 C210 208 336 314 512 254 C674 198 814 198 1200 246" stroke="#e2e8f0" stroke-width="1.3"/>
    <path d="M0 296 C200 230 340 328 530 284 C690 246 870 236 1200 272" stroke="#e2e8f0" stroke-width="1.3"/>
  </g>

  <g transform="translate(70 70)">
    <text x="0" y="0" fill="#a7f3d0" font-size="18" font-family="Inter, ui-sans-serif, system-ui, -apple-system, Segoe UI, sans-serif" letter-spacing="3">DEEPCOGNEURAL</text>
    <text x="0" y="64" fill="#ffffff" font-size="54" font-weight="700" font-family="Inter, ui-sans-serif, system-ui, -apple-system, Segoe UI, sans-serif">Linghao Xu</text>
    <text x="0" y="106" fill="#cbd5e1" font-size="24" font-family="Inter, ui-sans-serif, system-ui, -apple-system, Segoe UI, sans-serif">Computational neuroscience | probabilistic perception | decision systems</text>
    <text x="0" y="152" fill="#e2e8f0" font-size="18" font-family="Inter, ui-sans-serif, system-ui, -apple-system, Segoe UI, sans-serif">Building models and infrastructure for uncertainty in neural dynamics, behavior, and markets.</text>
  </g>

  <g transform="translate(725 76)">
    <rect x="0" y="0" width="365" height="200" rx="22" fill="#020617" opacity="0.45" stroke="#94a3b8" stroke-opacity="0.35"/>
    <path d="M36 132 C65 56 102 128 132 82 C159 42 194 48 222 94 C252 143 296 52 334 84" stroke="url(#lineA)" stroke-width="6" stroke-linecap="round"/>
    <path d="M36 150 C92 130 124 148 176 120 C220 96 268 128 334 110" stroke="#e2e8f0" stroke-opacity="0.42" stroke-width="3" stroke-linecap="round"/>
    <g fill="#e2e8f0" opacity="0.78" font-family="Inter, ui-sans-serif, system-ui, -apple-system, Segoe UI, sans-serif" font-size="13">
      <text x="34" y="42">segmentation uncertainty</text>
      <text x="34" y="178">V1 dynamics / decision policies</text>
    </g>
    <g fill="#2dd4bf">
      <circle cx="36" cy="132" r="5"/>
      <circle cx="132" cy="82" r="5"/>
      <circle cx="222" cy="94" r="5"/>
      <circle cx="334" cy="84" r="5"/>
    </g>
  </g>
</svg>

